<svg version="1.1" id="Layer_1" xmlns="http://www.w3.org/2000/svg" x="0" y="0" viewBox="0 0 2506.9 2506.9" style="enable-background:new 0 0 2506.9 2506.9" xml:space="preserve"><style>.st0{fill:#231f20}</style><path class="st0" d="M1253.4 3.4c-689.2 0-1250 560.8-1250 1250s560.8 1250.1 1250 1250.1 1250-560.8 1250-1250.1-560.8-1250-1250-1250zm0 2318.7c-589.4 0-1068.9-479.4-1068.9-1068.7 0-589.4 479.6-1068.8 1068.9-1068.8 589.3 0 1068.9 479.3 1068.9 1068.8 0 589.3-479.6 1068.7-1068.9 1068.7z"/><path class="st0" d="M1279.2 1902c-9.6-3.6-20-9.6-20-34.8 0-10.4 1.7-22.4 5.4-37.1l157.9-765.4c3.6-18 5.4-36.8 5.4-55.5 0-49.4-15.3-87.1-45.4-112-67.4-55.4-185.4-44.6-381.6 21.8l-19 6.4-7.8 98.8h32.9c99.9 0 124 7.8 129 10.2 6.8 3.2 10.4 7 10.4 18.3 0 6.2-.8 13.2-2.4 21-2.1 10.4-4.2 22.4-6.6 35.4L992.8 1812c-6.8 35.4-10.2 65.8-10.2 90.1 0 56 16.1 99.3 47.8 128.5 31 28.5 73.4 43 126.1 43 61.6 0 144.2-17.1 252.8-52.2l19.4-6.2 7.8-100.1h-32.9c-74.3 0-108.5-7.1-124.4-13.1zM1487.1 476c-29.9-28.4-68.2-42.9-113.8-42.9-47.2 0-87.2 15.6-118.7 46.1-31.8 30.7-47.9 72.1-47.9 123 0 46.9 15.4 85.8 45.6 116 30.3 30.3 69 45.8 115 45.8 46.8 0 86.4-16.3 118-48.2 31.4-31.9 47.4-73.2 47.4-123.1 0-48.9-15.3-88.1-45.6-116.7z"/></svg>