<svg id="Layer_1" data-name="Layer 1" xmlns="http://www.w3.org/2000/svg" viewBox="0 0 74 41.3"><defs><style>.cls-1{fill:#000;}.cls-2{fill:#d3001b;}.cls-3{fill:#2a2a2d;}</style></defs><title>plus</title><circle class="cls-1" cx="69.8" cy="37.3" r="4.2"/><circle class="cls-1" cx="4.2" cy="37.3" r="4.2"/><circle class="cls-1" cx="4.2" cy="4.2" r="4.2"/><circle class="cls-1" cx="69.8" cy="4.2" r="4.2"/><path class="cls-2" d="M61.3,5H12.7a8.5,8.5,0,0,1-8.5,8.5V27.8a8.5,8.5,0,0,1,8.5,8.5H61.3a8.5,8.5,0,0,1,8.5-8.5V13.5A8.5,8.5,0,0,1,61.3,5Z"/><path class="cls-3" d="M4.2,27.8a8.5,8.5,0,0,1,8.5,8.5H61.3a8.5,8.5,0,0,1,8.5-8.5Z"/></svg>