<svg id="Layer_1" data-name="Layer 1" xmlns="http://www.w3.org/2000/svg" viewBox="0 0 78 84">
  <defs>
    <style>
      .cls-1 {
        fill: #fff;
      }

      .cls-2 {
        fill: #d32027;
        fill-rule: evenodd;
      }
    </style>
  </defs>
  <title>Artboard 3</title>
  <g>
    <path class="cls-1" d="M78,4.21H72.1L72,80.1h5.9Z"/>
    <g>
      <path class="cls-2" d="M40.26,16.36A6.23,6.23,0,1,0,34,10.14,6.23,6.23,0,0,0,40.26,16.36Z"/>
      <path class="cls-2" d="M68.45,18.89c-1.71.08-3.1.85-3.4,1.8a2.73,2.73,0,0,0-2.67-2.26l-14.56.7a27.65,27.65,0,0,0-7.67-.92c-14.45,0-13.28,7-13.28,7L25.41,41.07a2.77,2.77,0,1,0,5.55,0l.58-13.91.85,0v40a3.58,3.58,0,0,0,7.16,0l.58-22.26h.08l.58,22.26a3.58,3.58,0,0,0,7.16,0v-40l0-2.54L62.38,24a2.74,2.74,0,0,0,2.7-2.42c.38.94,1.86,1.58,3.58,1.49,2-.1,3.52-1.11,3.47-2.27S70.42,18.8,68.45,18.89Z"/>
    </g>
    <path class="cls-1" d="M7.18,78.62A1.91,1.91,0,0,1,9.1,76.71H54a1.91,1.91,0,0,1,1.92,1.92V80h7V28.41h-7v5.09A1.91,1.91,0,0,1,54,35.41H9.1a1.91,1.91,0,0,1-1.91-1.92V28.41H0V80H7.17Zm0-35.11A1.91,1.91,0,0,1,9.1,41.6H54a1.91,1.91,0,0,1,1.92,1.92V68.76A1.91,1.91,0,0,1,54,70.67H9.1a1.91,1.91,0,0,1-1.91-1.91Z"/>
  </g>
</svg>
