<svg id="Layer_1" data-name="Layer 1" xmlns="http://www.w3.org/2000/svg" viewBox="0 0 162 80">
  <defs>
    <style>
      .cls-1 {
        fill: #fff;
      }

      .cls-2 {
        fill: #2b2b2d;
      }

      .cls-3 {
        fill: #d32027;
      }
    </style>
  </defs>
  <title>Artboard 7</title>
  <g>
    <circle class="cls-1" cx="97.67" cy="10.29" r="5.29"/>
    <circle class="cls-1" cx="97.67" cy="69.94" r="5.29"/>
    <path class="cls-2" d="M108.24,10.29s0,.09,0,.14a10.58,10.58,0,1,1-21.17,0s0-.09,0-.14H71.35V70.21H87.09s0-.09,0-.14a10.58,10.58,0,1,1,21.17,0s0,.09,0,.14h49.34V10.29Z"/>
    <circle class="cls-1" cx="5.29" cy="69.94" r="5.29"/>
    <circle class="cls-1" cx="5.29" cy="10.57" r="5.29"/>
    <path class="cls-3" d="M15.88,10.57A10.6,10.6,0,0,1,5.29,21.15v38.2A10.6,10.6,0,0,1,15.88,69.94c0,.09,0,.18,0,.27H87.09c0-.09,0-.18,0-.27A10.6,10.6,0,0,1,97.67,59.35V20.88A10.6,10.6,0,0,1,87.08,10.29H15.86C15.87,10.38,15.88,10.47,15.88,10.57Z"/>
  </g>
</svg>
