<?xml version="1.0" encoding="utf-8"?>
<!-- Generator: Adobe Illustrator 23.0.1, SVG Export Plug-In . SVG Version: 6.00 Build 0)  -->
<svg version="1.1" id="Layer_1" xmlns="http://www.w3.org/2000/svg" xmlns:xlink="http://www.w3.org/1999/xlink" x="0px" y="0px"
	 viewBox="0 0 162 80" style="enable-background:new 0 0 162 80;" xml:space="preserve">
<style type="text/css">
	.st0{fill:#FFFFFF;}
	.st1{fill:#2B2B2D;}
	.st2{fill:#D32027;}
</style>
<title>Artboard 7</title>
<g>
	<circle class="st0" cx="53.1" cy="10.3" r="5.3"/>
	<circle class="st0" cx="53.1" cy="69.9" r="5.3"/>
	<path class="st1" d="M63.7,10.3c0,0,0,0.1,0,0.1c0,5.8-4.7,10.6-10.6,10.6s-10.6-4.7-10.6-10.6c0,0,0-0.1,0-0.1H26.8v59.9h15.7
		c0,0,0-0.1,0-0.1c0-5.8,4.7-10.6,10.6-10.6s10.6,4.7,10.6,10.6c0,0,0,0.1,0,0.1h93.9V10.3H63.7z"/>
	<circle class="st0" cx="5.3" cy="69.9" r="5.3"/>
	<circle class="st0" cx="5.3" cy="10.6" r="5.3"/>
	<path class="st2" d="M15.9,10.6c0,5.8-4.7,10.6-10.6,10.6v38.2c5.8,0,10.6,4.7,10.6,10.6c0,0.1,0,0.2,0,0.3h26.6c0-0.1,0-0.2,0-0.3
		c0-5.8,4.7-10.6,10.6-10.6V20.9c-5.8,0-10.6-4.7-10.6-10.6H15.9C15.9,10.4,15.9,10.5,15.9,10.6z"/>
</g>
</svg>
