<svg id="Layer_1" data-name="Layer 1" xmlns="http://www.w3.org/2000/svg" viewBox="0 0 88 80">
  <defs>
    <style>
      .cls-1 {
        fill: #d32027;
      }

      .cls-2 {
        fill: #fff;
      }
    </style>
  </defs>
  <title>Artboard 12</title>
  <g>
    <polygon class="cls-1" points="83.19 19.54 80 14.6 44.29 37.64 8.58 14.6 5.39 19.54 38.87 41.14 5.39 62.73 8.58 67.67 44.29 44.64 80 67.67 83.19 62.73 49.71 41.14 83.19 19.54"/>
    <path class="cls-2" d="M7,71.64a2.8,2.8,0,0,1,2.81-2.81H76a2.81,2.81,0,0,1,2.81,2.81V77h7V5h-7V7.59a2.81,2.81,0,0,1-2.81,2.81H9.75A2.81,2.81,0,0,1,6.94,7.59V5H0V77H7Zm-.1-52.18a2.8,2.8,0,0,1,2.81-2.81H76a2.81,2.81,0,0,1,2.81,2.81V60A2.81,2.81,0,0,1,76,62.79H9.75A2.81,2.81,0,0,1,6.94,60Z"/>
  </g>
</svg>
