<svg id="Layer_1" data-name="Layer 1" xmlns="http://www.w3.org/2000/svg" viewBox="0 0 54 76">
  <defs>
    <style>
      .cls-1 {
        fill: #fff;
      }

      .cls-2 {
        fill: #d32027;
      }
    </style>
  </defs>
  <title>Artboard 14</title>
  <g>
    <path class="cls-1" d="M24.88,57.26a7.78,7.78,0,0,1-4.63-4c-.56-1.27-1.18-3.89,1-7.15a17.26,17.26,0,0,0,1.4-2.84c.15-.35.3-.71.46-1.07q0-1.95,0-4v-.24a4,4,0,0,1,.09-.81L20,37.2a56.17,56.17,0,0,0-6.41.73c0,.08,0,.16,0,.24,0,1.69,0,3.31,0,4.88a45.62,45.62,0,0,1-2.54,5.25c-2.43,3.67.79,5.26,3.59,5.7,1.72,7.84,6.1,12.66,17.16,13.37V76h7V70.4C31.61,68.57,27.07,64.31,24.88,57.26Z"/>
    <path class="cls-2" d="M9.49,32.62a6.81,6.81,0,0,1,4.28-6.34l.25-.11a26.06,26.06,0,0,1,3.77-1c.71-.16,1.44-.31,2.05-.49,1.66-9.46,4.63-16.45,8.82-20.79l.27-.28A29.54,29.54,0,0,1,32.83.08a33.07,33.07,0,0,0-6.68,1c-4,1.06-6.66,4.09-8.09,5.56-4.28,4.42-6.59,11.84-7.83,19.13A3.21,3.21,0,0,1,9,28H9c-2,.93-4.9,1.14-7,1.94H2a2.85,2.85,0,0,0,.34,5.53h0a27.06,27.06,0,0,0,7.67-.3A6.81,6.81,0,0,1,9.49,32.62Z"/>
    <path class="cls-1" d="M53.42,37.92a124,124,0,0,0-13.33-.86l-5.51.13a56.17,56.17,0,0,0-6.41.73c0,.08,0,.16,0,.24,0,1.69,0,3.31,0,4.88a45.58,45.58,0,0,1-2.54,5.25c-2.43,3.67.79,5.26,3.59,5.7C31,61.83,35.36,66.66,46.41,67.37V76h7V59.69h0Z"/>
    <path class="cls-2" d="M53.43,34.49V.18a37,37,0,0,0-12.69.91c-4,1.06-6.66,4.09-8.09,5.56C28.36,11.07,26,18.5,24.81,25.79A3.21,3.21,0,0,1,23.55,28h0c-2,.93-4.9,1.14-7,1.94h0a2.85,2.85,0,0,0,.34,5.53h0A29.77,29.77,0,0,0,25.45,35C35.05,32.8,47.39,33.78,53.43,34.49Z"/>
  </g>
</svg>
