<svg id="Layer_1" data-name="Layer 1" xmlns="http://www.w3.org/2000/svg" viewBox="0 0 100 112">
  <defs>
    <style>
      .cls-1 {
        fill: #fff;
      }

      .cls-2 {
        fill: #d32027;
      }
    </style>
  </defs>
  <title>Artboard 19</title>
  <g>
    <rect class="cls-1" x="93.62" y="0.85" width="6.38" height="111.08"/>
    <path class="cls-2" d="M27.33,68.31a1.59,1.59,0,0,0-2.17.55L1.76,108.06H1.58A1.59,1.59,0,0,0,0,109.65v.77A1.59,1.59,0,0,0,1.58,112H3.67a1.59,1.59,0,0,0,1.59-1.58v-.77a1.54,1.54,0,0,0-.26-.82L17.37,88.09l7.92.06h0a1.59,1.59,0,0,0,0-3.17l-6.06,0,8.62-14.45A1.59,1.59,0,0,0,27.33,68.31Z"/>
    <path class="cls-2" d="M59,68.05a1.59,1.59,0,0,1,2.17.55l23.4,39.21h.17a1.59,1.59,0,0,1,1.58,1.59v.77a1.58,1.58,0,0,1-1.58,1.58H82.62A1.59,1.59,0,0,1,81,110.16v-.77a1.54,1.54,0,0,1,.26-.82L68.92,87.84,61,87.9h0a1.59,1.59,0,0,1,0-3.17l6.06,0L58.41,70.23A1.59,1.59,0,0,1,59,68.05Z"/>
    <path class="cls-1" d="M65.56,102.32v-1H62.07V8.88h-6v2.68a1.45,1.45,0,0,1-1.39,1.5H31.49a1.45,1.45,0,0,1-1.39-1.5V8.88H24.28v92.38h-4.1v1h3.62a4.85,4.85,0,1,0,6.09,4.69c0-.07,0-.13,0-.2v-3.92h0v-.95a1.5,1.5,0,0,1,1.39-1.59H54.46a1.5,1.5,0,0,1,1.39,1.59v.95h0v4c0,.07,0,.13,0,.2a4.86,4.86,0,1,0,6.22-4.64v0Zm-35.4-85a1.45,1.45,0,0,1,1.39-1.51H54.73a1.45,1.45,0,0,1,1.39,1.51V21.6a1.45,1.45,0,0,1-1.39,1.51H31.55a1.45,1.45,0,0,1-1.39-1.51Zm25.67,78a1.5,1.5,0,0,1-1.39,1.58H31.25a1.5,1.5,0,0,1-1.39-1.58V85h26Zm0-12.33h-26V72.5a1.5,1.5,0,0,1,1.39-1.59H54.43a1.5,1.5,0,0,1,1.39,1.59Zm0-16.74a1.5,1.5,0,0,1-1.39,1.59H31.25a1.5,1.5,0,0,1-1.39-1.59V56.08h26Zm0-12.18h-26V43.44a1.5,1.5,0,0,1,1.39-1.59H54.43a1.5,1.5,0,0,1,1.39,1.59ZM54.48,38.47H31A1.46,1.46,0,0,1,29.63,37V27.24A1.46,1.46,0,0,1,31,25.74H54.48a1.46,1.46,0,0,1,1.41,1.51V37A1.46,1.46,0,0,1,54.48,38.47Z"/>
    <circle class="cls-2" cx="24.98" cy="106.91" r="3.28"/>
    <circle class="cls-2" cx="60.76" cy="107" r="3.28"/>
  </g>
</svg>
