<svg id="Layer_1" data-name="Layer 1" xmlns="http://www.w3.org/2000/svg" viewBox="0 0 88 80">
  <defs>
    <style>
      .cls-1 {
        fill: #d32027;
      }

      .cls-2 {
        fill: #fff;
      }
    </style>
  </defs>
  <title>Artboard 11</title>
  <g>
    <path class="cls-1" d="M34.62,52.59H7.21v6H78.78v-6H51.52L78.78,32.88V22.81H7.21v10ZM46.15,28.76H74.27L46.15,49.13Zm-6,20.48L11.87,28.76H40.18Z"/>
    <path class="cls-2" d="M7,71.64a2.8,2.8,0,0,1,2.81-2.81H76a2.81,2.81,0,0,1,2.81,2.81V77h7V5h-7V7.59a2.81,2.81,0,0,1-2.81,2.81H9.75A2.81,2.81,0,0,1,6.94,7.59V5H0V77H7Zm-.1-52.18a2.8,2.8,0,0,1,2.81-2.81H76a2.81,2.81,0,0,1,2.81,2.81V60A2.81,2.81,0,0,1,76,62.79H9.75A2.81,2.81,0,0,1,6.94,60Z"/>
  </g>
</svg>
