<svg id="Layer_1" data-name="Layer 1" xmlns="http://www.w3.org/2000/svg" viewBox="0 0 78 112">
  <defs>
    <style>
      .cls-1 {
        fill: #fff;
      }

      .cls-2 {
        fill: #d32027;
      }
    </style>
  </defs>
  <title>Artboard 18</title>
  <g>
    <rect class="cls-1" x="71.13" y="1.02" width="6.37" height="110.91"/>
    <path class="cls-2" d="M27.79,68.37a1.59,1.59,0,0,0-2.17.55L2.26,108.07H2.08A1.59,1.59,0,0,0,.5,109.65v.77A1.58,1.58,0,0,0,2.08,112H4.16a1.58,1.58,0,0,0,1.58-1.58v-.77a1.54,1.54,0,0,0-.26-.82L17.84,88.13l7.91.06h0a1.58,1.58,0,0,0,0-3.17l-6,0,8.61-14.43A1.58,1.58,0,0,0,27.79,68.37Z"/>
    <path class="cls-1" d="M66,102.33v-1H62.47V9h-6v2.68a1.45,1.45,0,0,1-1.39,1.5H31.94a1.45,1.45,0,0,1-1.39-1.5V9h-5.8v92.24H20.65v1h3.62a4.84,4.84,0,1,0,6.08,4.68c0-.07,0-.13,0-.2V102.8h0v-.95a1.49,1.49,0,0,1,1.39-1.59H54.88a1.5,1.5,0,0,1,1.39,1.59v.95h0v4c0,.07,0,.13,0,.2a4.85,4.85,0,1,0,6.21-4.63v0ZM30.61,17.42A1.45,1.45,0,0,1,32,15.92H55.14a1.45,1.45,0,0,1,1.39,1.5v4.32a1.45,1.45,0,0,1-1.39,1.5H32a1.45,1.45,0,0,1-1.39-1.5ZM56.24,95.33a1.49,1.49,0,0,1-1.39,1.58H31.71a1.49,1.49,0,0,1-1.39-1.58V85H56.24Zm0-12.31H30.32V72.56A1.5,1.5,0,0,1,31.71,71H54.85a1.5,1.5,0,0,1,1.39,1.58Zm0-16.72a1.5,1.5,0,0,1-1.39,1.59H31.71a1.5,1.5,0,0,1-1.39-1.59V56.16H56.24Zm0-12.16H30.32V43.54A1.5,1.5,0,0,1,31.71,42H54.85a1.5,1.5,0,0,1,1.39,1.58ZM54.89,38.58H31.49a1.46,1.46,0,0,1-1.41-1.5v-9.7a1.46,1.46,0,0,1,1.41-1.5h23.4a1.46,1.46,0,0,1,1.41,1.5v9.7A1.46,1.46,0,0,1,54.89,38.58Z"/>
    <circle class="cls-2" cx="25.45" cy="106.92" r="3.28"/>
    <circle class="cls-2" cx="61.17" cy="107.01" r="3.28"/>
  </g>
</svg>
