<svg id="Layer_1" data-name="Layer 1" xmlns="http://www.w3.org/2000/svg" viewBox="0 0 162 80">
  <defs>
    <style>
      .cls-1 {
        fill: #fff;
      }

      .cls-2 {
        fill: #2b2b2d;
      }

      .cls-3 {
        fill: #d32027;
      }
    </style>
  </defs>
  <title>Artboard 8</title>
  <g>
    <circle class="cls-1" cx="5.29" cy="10.3" r="5.3"/>
    <circle class="cls-1" cx="127.69" cy="10.29" r="5.3"/>
    <circle class="cls-1" cx="127.69" cy="69.71" r="5.3"/>
    <path class="cls-2" d="M138.27,10c0,.09,0,.18,0,.27a10.59,10.59,0,1,1-21.18,0c0-.09,0-.18,0-.27H15.87c0,.09,0,.18,0,.28A10.6,10.6,0,0,1,5.29,20.89V59.11A10.6,10.6,0,0,1,15.89,69.7c0,.09,0,.18,0,.27H117.11c0-.09,0-.18,0-.27a10.59,10.59,0,1,1,21.18,0c0,.09,0,.18,0,.27h19.4V10Z"/>
    <circle class="cls-1" cx="5.29" cy="69.7" r="5.29"/>
    <path class="cls-3" d="M117.1,10.29c0-.09,0-.18,0-.27H15.87c0,.09,0,.18,0,.28A10.6,10.6,0,0,1,5.29,20.89V59.11A10.6,10.6,0,0,1,15.89,69.7c0,.09,0,.18,0,.27H117.11c0-.09,0-.18,0-.27a10.6,10.6,0,0,1,10.59-10.59V20.89A10.6,10.6,0,0,1,117.1,10.29Z"/>
  </g>
</svg>
