<svg id="Layer_1" data-name="Layer 1" xmlns="http://www.w3.org/2000/svg" viewBox="0 0 78 84">
  <defs>
    <style>
      .cls-1, .cls-2 {
        fill: #d32027;
      }

      .cls-1 {
        fill-rule: evenodd;
      }

      .cls-3 {
        fill: #fff;
      }
    </style>
  </defs>
  <title>Artboard 5</title>
  <g>
    <g>
      <path class="cls-1" d="M53.13,25.25s1-6.34-11.3-6.94a2.41,2.41,0,0,0-.32,0c-.54,0-1-.06-1.62-.06l-.12,0-.11,0c-.58,0-1.1,0-1.62.06a2.41,2.41,0,0,0-.32,0c-12.33.6-11.31,6.94-11.31,6.94L25,41a2.77,2.77,0,0,0,5.54,0l.58-13.86.85,0V67a3.57,3.57,0,0,0,3.56,3.57h.21A3.58,3.58,0,0,0,39.26,67l.5-19.62L40.28,67a3.57,3.57,0,0,0,3.57,3.57h.2A3.57,3.57,0,0,0,47.62,67V27.13l.85,0L49,41a2.77,2.77,0,0,0,5.54,0Z"/>
      <path class="cls-1" d="M39.76,16.38h0A6.21,6.21,0,0,0,39.77,4h0a6.21,6.21,0,1,0,0,12.42Z"/>
    </g>
    <rect class="cls-2" x="62.96" y="35.53" width="5.43" height="41.27"/>
    <path class="cls-3" d="M78,4.32H72.1L72,80h5.9Z"/>
    <path class="cls-3" d="M7.22,78.56a1.91,1.91,0,0,1,1.91-1.92H54a1.91,1.91,0,0,1,1.91,1.92v1.35h7V28.37h-7v5.08A1.91,1.91,0,0,1,54,35.37H9.13a1.91,1.91,0,0,1-1.91-1.92V28.37L0,28.35V79.89l7.21,0Zm0-35.09a1.91,1.91,0,0,1,1.91-1.91H54a1.91,1.91,0,0,1,1.91,1.91V68.7A1.91,1.91,0,0,1,54,70.61H9.13A1.91,1.91,0,0,1,7.22,68.7Z"/>
  </g>
</svg>
