<svg id="Layer_1" data-name="Layer 1" xmlns="http://www.w3.org/2000/svg" viewBox="0 0 74 41.3"><defs><style>.cls-1{fill:#fff;}.cls-2{fill:#d3001b;}.cls-3{fill:#37373c;}</style></defs><title>dubbel</title><circle class="cls-1" cx="69.8" cy="37.3" r="4"/><circle class="cls-1" cx="4.2" cy="37.4" r="4"/><circle class="cls-1" cx="4.2" cy="4" r="4"/><circle class="cls-1" cx="69.8" cy="4" r="4"/><path class="cls-2" d="M61.8,37.3a8,8,0,0,1,8-8V12a8,8,0,0,1-8-7.8H12.2a8,8,0,0,1-8,7.8V29.4a8,8,0,0,1,8,8H61.8Z"/><rect class="cls-3" x="1.3" y="19.8" width="7.5" height="2.29"/><rect class="cls-3" x="15.8" y="19.8" width="7.5" height="2.29"/><rect class="cls-3" x="32.2" y="19.8" width="7.5" height="2.29"/><rect class="cls-3" x="48.6" y="19.8" width="7.5" height="2.29"/><rect class="cls-3" x="65.2" y="19.8" width="7.5" height="2.29"/></svg>