<?xml version="1.0" standalone="no"?>
<!DOCTYPE svg PUBLIC "-//W3C//DTD SVG 20010904//EN"
 "http://www.w3.org/TR/2001/REC-SVG-20010904/DTD/svg10.dtd">
<svg version="1.0" xmlns="http://www.w3.org/2000/svg"
 width="300.000000pt" height="300.000000pt" viewBox="0 0 300.000000 300.000000"
 preserveAspectRatio="xMidYMid meet">
<metadata>
Created by potrace 1.10, written by Peter Selinger 2001-2011
</metadata>
<g transform="translate(0.000000,300.000000) scale(0.100000,-0.100000)"
fill="#000000" stroke="none">
<path d="M1505 2741 c-116 -15 -241 -63 -340 -131 -112 -77 -224 -226 -272
-360 l-28 -79 -70 -11 c-296 -49 -483 -111 -566 -189 -34 -33 -39 -43 -39 -84
0 -37 5 -51 31 -76 43 -44 100 -74 204 -111 98 -34 338 -85 453 -96 66 -6 74
-9 94 -38 122 -175 286 -282 492 -321 219 -42 440 13 618 153 59 45 142 139
161 179 7 16 22 23 61 28 28 3 101 15 161 26 438 77 620 210 472 346 -73 68
-288 141 -507 173 l-85 13 -24 74 c-73 228 -276 419 -512 482 -86 23 -218 32
-304 22z m267 -81 c372 -94 600 -475 503 -845 -9 -33 -29 -87 -44 -121 l-29
-61 -73 -7 c-380 -33 -758 -34 -1063 0 l-58 6 -29 62 c-109 235 -81 507 74
711 169 221 453 322 719 255z m-917 -673 c0 -121 3 -153 23 -217 13 -41 30
-86 39 -98 8 -13 12 -26 9 -29 -7 -8 -259 36 -364 63 -137 36 -243 79 -290
120 -63 54 -56 92 29 144 85 52 322 121 549 159 3 1 5 -63 5 -142z m1641 107
c227 -45 389 -110 437 -176 20 -26 20 -27 1 -60 -26 -43 -155 -109 -284 -142
-101 -27 -362 -77 -368 -71 -2 2 3 14 11 27 9 12 26 57 39 98 19 63 23 97 23
212 0 76 3 138 6 138 3 0 64 -12 135 -26z m-1221 -525 c197 -12 603 -7 790 10
55 5 101 8 103 6 7 -7 -88 -103 -141 -143 -69 -53 -128 -84 -212 -113 -61 -21
-89 -24 -210 -24 -151 0 -221 16 -325 72 -79 44 -209 153 -232 197 -9 16 -7
18 14 13 13 -4 109 -12 213 -18z"/>
<path d="M303 961 c-51 -13 -135 -80 -131 -105 5 -33 34 -30 81 8 39 32 50 36
102 36 51 0 66 -6 151 -55 100 -59 139 -100 158 -167 26 -87 68 -73 80 27 10
90 32 131 79 154 143 68 338 47 536 -60 41 -22 80 -38 88 -35 23 9 14 44 -17
66 -48 34 -198 96 -277 114 -215 48 -426 -17 -449 -140 -8 -41 -13 -42 -38 -5
-36 53 -218 158 -287 165 -24 3 -58 1 -76 -3z"/>
</g>
</svg>
